<svg id="Livello_1" data-name="Livello 1" xmlns="http://www.w3.org/2000/svg" viewBox="0 0 930.63 227.55">
  <defs>
    <style>
      .cls-1 {
        fill: #225399;
      }
    </style>
  </defs>
  <path class="cls-1" d="M893.94,544.3V457.6h-86.7l53.45-53.45a61.31,61.31,0,0,1,86.7,86.7ZM856,437.41h58.14v58.14l19-19A41.11,41.11,0,0,0,875,418.43Z" transform="translate(-34.69 -386.23)" />
  <polygon class="cls-1" points="112.91 193.01 112.91 227.55 0 227.55 0 91.74 110.39 91.74 110.39 126.27 45.01 126.27 45.01 142.18 102.44 142.18 102.44 175.16 45.01 175.16 45.01 193.01 112.91 193.01" />
  <polygon class="cls-1" points="293.53 227.55 251.82 227.55 251.49 165.6 221.95 215.32 201.76 215.32 172.28 167.74 172.28 227.55 130.57 227.55 130.57 91.74 168.21 91.74 212.49 164.01 255.51 91.74 293.14 91.74 293.53 227.55" />
  <polygon class="cls-1" points="478.62 227.55 436.9 227.55 436.58 165.6 407.03 215.32 386.85 215.32 357.36 167.74 357.36 227.55 315.65 227.55 315.65 91.74 353.29 91.74 397.57 164.02 440.6 91.74 478.23 91.74 478.62 227.55" />
  <polygon class="cls-1" points="613.65 193.01 613.65 227.55 500.73 227.55 500.73 91.74 611.12 91.74 611.12 126.27 545.75 126.27 545.75 142.18 603.17 142.18 603.17 175.16 545.75 175.16 545.75 193.01 613.65 193.01" />
  <path class="cls-1" d="M666,613.77V478h66.93q22.7,0,40,8.25a63.9,63.9,0,0,1,27,23.38q9.71,15.13,9.7,36.08,0,21.15-9.7,36.38a63.64,63.64,0,0,1-27,23.48q-17.28,8.24-40,8.24Zm45.78-35.7H731a37.07,37.07,0,0,0,17-3.68,26.54,26.54,0,0,0,11.35-11q4.07-7.27,4.07-17.76,0-10.27-4.07-17.46A26.71,26.71,0,0,0,748,517.35a37.07,37.07,0,0,0-17-3.69H711.77Z" transform="translate(-34.69 -386.23)" />
  <path class="cls-1" d="M826.24,613.77V478H872V613.77Z" transform="translate(-34.69 -386.23)" />
  <path class="cls-1" d="M61.38,460.07a27.66,27.66,0,0,1-11.26-2.21A20.34,20.34,0,0,1,37.8,441.73l11.09-1.64a12.33,12.33,0,0,0,4.84,7.45,14,14,0,0,0,8.35,2.62,16.12,16.12,0,0,0,5.07-.82,10,10,0,0,0,4-2.42,5.68,5.68,0,0,0,1.33-5.6,4.4,4.4,0,0,0-.84-1.5A6.32,6.32,0,0,0,70,438.49a13.25,13.25,0,0,0-2.71-1.13l-14.6-4.3c-1.09-.31-2.36-.75-3.8-1.32a16.46,16.46,0,0,1-4.2-2.46A12.52,12.52,0,0,1,41.34,425,14.49,14.49,0,0,1,40,418.39a15.06,15.06,0,0,1,2.85-9.4,16.92,16.92,0,0,1,7.61-5.58A28.29,28.29,0,0,1,61,401.61a27.74,27.74,0,0,1,10.38,2A20.07,20.07,0,0,1,79,409.16a22.29,22.29,0,0,1,4.44,8.92L72,420a10.11,10.11,0,0,0-2.3-4.6,11,11,0,0,0-4-2.85,13.5,13.5,0,0,0-4.86-1.06,13,13,0,0,0-4.7.69,8.81,8.81,0,0,0-3.59,2.2,4.77,4.77,0,0,0-1.39,3.43,4.1,4.1,0,0,0,1.13,3,8.32,8.32,0,0,0,2.85,1.85,27.78,27.78,0,0,0,3.51,1.17l9.76,2.66q2.19.58,4.84,1.54a21.88,21.88,0,0,1,5.09,2.65,13.46,13.46,0,0,1,4,4.47,14,14,0,0,1,1.58,7A15.92,15.92,0,0,1,82,450.1,16.49,16.49,0,0,1,77,455.68a23.57,23.57,0,0,1-7.24,3.3A32.16,32.16,0,0,1,61.38,460.07Z" transform="translate(-34.69 -386.23)" />
  <path class="cls-1" d="M112.65,458.9V412.62H94.94V402.7H141v9.92H123.27V458.9Z" transform="translate(-34.69 -386.23)" />
  <path class="cls-1" d="M177.2,460.07a25,25,0,0,1-11.94-2.75,19.94,19.94,0,0,1-8-7.75,23,23,0,0,1-2.89-11.74V402.78l10.77-.08v35.05a13,13,0,0,0,.94,5,11.67,11.67,0,0,0,2.59,3.9,11.36,11.36,0,0,0,3.87,2.52,13.07,13.07,0,0,0,9.48,0,11.51,11.51,0,0,0,6.4-6.44,13.19,13.19,0,0,0,.92-5V402.7h10.77v35.13a23,23,0,0,1-2.89,11.74,20,20,0,0,1-8,7.75A25,25,0,0,1,177.2,460.07Z" transform="translate(-34.69 -386.23)" />
  <path class="cls-1" d="M218.1,458.9V402.7h18.18l2.74,0a39,39,0,0,1,4,.28,21.7,21.7,0,0,1,11.51,4.72,24.73,24.73,0,0,1,7.18,9.91,36.38,36.38,0,0,1,0,26.3,24.73,24.73,0,0,1-7.18,9.91A21.71,21.71,0,0,1,243,458.59c-1.28.15-2.61.24-4,.27l-2.74,0Zm10.77-10h7.41q1.07,0,2.85-.06a21.58,21.58,0,0,0,3.24-.33,10.39,10.39,0,0,0,6-3.44,17.25,17.25,0,0,0,3.44-6.47,28.22,28.22,0,0,0,0-15.81,16.67,16.67,0,0,0-3.5-6.4,10.41,10.41,0,0,0-5.89-3.32,18.16,18.16,0,0,0-3.24-.35l-2.85,0h-7.41Z" transform="translate(-34.69 -386.23)" />
  <path class="cls-1" d="M281.4,458.9V402.7H292v56.2Z" transform="translate(-34.69 -386.23)" />
  <path class="cls-1" d="M334.94,460.07a27.67,27.67,0,0,1-14.54-3.67,24.38,24.38,0,0,1-9.4-10.26,37.3,37.3,0,0,1,0-30.68,24.44,24.44,0,0,1,9.4-10.26,30.62,30.62,0,0,1,29.07,0,24.46,24.46,0,0,1,9.41,10.26,37.3,37.3,0,0,1,0,30.68,24.4,24.4,0,0,1-9.41,10.26A27.64,27.64,0,0,1,334.94,460.07Zm0-10a15.26,15.26,0,0,0,8.89-2.3,14.39,14.39,0,0,0,5.33-6.75,27,27,0,0,0,1.78-10.23,26.38,26.38,0,0,0-1.78-10.15,14.42,14.42,0,0,0-5.33-6.67,16,16,0,0,0-8.89-2.46,15.29,15.29,0,0,0-8.9,2.3,14.43,14.43,0,0,0-5.33,6.76,27.1,27.1,0,0,0-1.77,10.22A26.54,26.54,0,0,0,320.71,441a14.49,14.49,0,0,0,5.33,6.67A16,16,0,0,0,334.94,450.08Z" transform="translate(-34.69 -386.23)" />
  <path class="cls-1" d="M412.83,458.9V412.62H395.11V402.7h46.05v9.92H423.45V458.9Z" transform="translate(-34.69 -386.23)" />
  <path class="cls-1" d="M454.51,458.9V402.7h36.68v9.92H465.12v12h21.39v9.92H465.12V449h26.07v9.91Z" transform="translate(-34.69 -386.23)" />
  <path class="cls-1" d="M529.83,460.07a27.67,27.67,0,0,1-14.54-3.67,24.47,24.47,0,0,1-9.41-10.26,37.41,37.41,0,0,1,0-30.68,24.52,24.52,0,0,1,9.41-10.26,27.77,27.77,0,0,1,14.54-3.67q9.67,0,16.25,4.8a25.49,25.49,0,0,1,9.27,13l-10.69,3a14.28,14.28,0,0,0-14.83-10.77,15.79,15.79,0,0,0-8.92,2.38,14.55,14.55,0,0,0-5.37,6.72,29.87,29.87,0,0,0,0,20.37,14.57,14.57,0,0,0,5.37,6.71,15.71,15.71,0,0,0,8.92,2.38,15.24,15.24,0,0,0,9.56-2.85,15.43,15.43,0,0,0,5.27-7.92l10.69,3a25.49,25.49,0,0,1-9.27,13Q539.51,460.07,529.83,460.07Z" transform="translate(-34.69 -386.23)" />
  <path class="cls-1" d="M571,458.9V402.7h10.77l24.43,37.47V402.7H617v56.2H606.24l-24.43-37.47V458.9Z" transform="translate(-34.69 -386.23)" />
  <path class="cls-1" d="M635.82,458.9V402.7h10.61v56.2Z" transform="translate(-34.69 -386.23)" />
  <path class="cls-1" d="M689.36,460.07a27.67,27.67,0,0,1-14.54-3.67,24.38,24.38,0,0,1-9.4-10.26,37.3,37.3,0,0,1,0-30.68,24.44,24.44,0,0,1,9.4-10.26,27.77,27.77,0,0,1,14.54-3.67q9.67,0,16.25,4.8a25.43,25.43,0,0,1,9.27,13l-10.69,3a14.28,14.28,0,0,0-14.83-10.77,15.79,15.79,0,0,0-8.92,2.38,14.55,14.55,0,0,0-5.37,6.72,29.87,29.87,0,0,0,0,20.37,14.57,14.57,0,0,0,5.37,6.71,15.71,15.71,0,0,0,8.92,2.38,14.33,14.33,0,0,0,14.83-10.77l10.69,3a25.43,25.43,0,0,1-9.27,13Q699,460.07,689.36,460.07Z" transform="translate(-34.69 -386.23)" />
  <path class="cls-1" d="M754.68,460.07a27.64,27.64,0,0,1-14.53-3.67,24.47,24.47,0,0,1-9.41-10.26,37.41,37.41,0,0,1,0-30.68,24.52,24.52,0,0,1,9.41-10.26,30.62,30.62,0,0,1,29.07,0,24.52,24.52,0,0,1,9.41,10.26,37.41,37.41,0,0,1,0,30.68,24.47,24.47,0,0,1-9.41,10.26A27.67,27.67,0,0,1,754.68,460.07Zm0-10a15.29,15.29,0,0,0,8.9-2.3,14.45,14.45,0,0,0,5.33-6.75,27.19,27.19,0,0,0,1.77-10.23,26.58,26.58,0,0,0-1.77-10.15,14.49,14.49,0,0,0-5.33-6.67,16,16,0,0,0-8.9-2.46,15.26,15.26,0,0,0-8.89,2.3,14.37,14.37,0,0,0-5.33,6.76,27.09,27.09,0,0,0-1.78,10.22A26.54,26.54,0,0,0,740.46,441a14.42,14.42,0,0,0,5.33,6.67A16,16,0,0,0,754.68,450.08Z" transform="translate(-34.69 -386.23)" />
</svg>